<svg width="50" height="50" viewBox="0 0 50 50" fill="none" xmlns="http://www.w3.org/2000/svg">
<g clip-path="url(#clip0_36_6)">
<circle cx="25" cy="25" r="25" fill="#3D4250"/>
<path d="M11.5606 36C11.294 36 11.054 35.9067 10.8406 35.72C10.654 35.5067 10.5606 35.2667 10.5606 35V15.6C10.5606 15.3067 10.654 15.0667 10.8406 14.88C11.054 14.6933 11.294 14.6 11.5606 14.6C11.854 14.6 12.094 14.6933 12.2806 14.88C12.4673 15.0667 12.5606 15.3067 12.5606 15.6V34H22.4006C22.694 34 22.934 34.0933 23.1206 34.28C23.3073 34.4667 23.4006 34.7067 23.4006 35C23.4006 35.2667 23.3073 35.5067 23.1206 35.72C22.934 35.9067 22.694 36 22.4006 36H11.5606ZM29.92 36C29.6533 36 29.4133 35.9067 29.2 35.72C29.0133 35.5067 28.92 35.2667 28.92 35V15.6C28.92 15.3067 29.0133 15.0667 29.2 14.88C29.4133 14.6933 29.6533 14.6 29.92 14.6C30.2133 14.6 30.4533 14.6933 30.64 14.88C30.8267 15.0667 30.92 15.3067 30.92 15.6V34H40.76C41.0533 34 41.2933 34.0933 41.48 34.28C41.6667 34.4667 41.76 34.7067 41.76 35C41.76 35.2667 41.6667 35.5067 41.48 35.72C41.2933 35.9067 41.0533 36 40.76 36H29.92Z" fill="white"/>
</g>
<defs>
<clipPath id="clip0_36_6">
<rect width="50" height="50" fill="white"/>
</clipPath>
</defs>
</svg>
